<svg width="290" height="290" viewBox="0 0 290 290" fill="none" xmlns="http://www.w3.org/2000/svg">
<path d="M79.837 63.2201C79.837 63.2201 52.2522 89.9523 44.08 120.28C35.9078 150.609 47.7282 182.445 75.5276 200.065C103.327 217.686 140.418 202.385 177.306 207.42C214.194 212.454 248.402 198.105 252.967 161.136C257.532 124.166 230.846 119.376 214.757 83.4157C198.667 47.4557 146.253 3.95567 79.837 63.2201Z" fill="#BBBFBF"/>
<path opacity="0.7" d="M79.837 63.2201C79.837 63.2201 52.2522 89.9523 44.08 120.28C35.9078 150.609 47.7282 182.445 75.5276 200.065C103.327 217.686 140.418 202.385 177.306 207.42C214.194 212.454 248.402 198.105 252.967 161.136C257.532 124.166 230.846 119.376 214.757 83.4157C198.667 47.4557 146.253 3.95567 79.837 63.2201Z" fill="white"/>
<path d="M148.178 256.859C210.001 256.859 260.118 247.957 260.118 236.976C260.118 225.996 210.001 217.094 148.178 217.094C86.3556 217.094 36.2384 225.996 36.2384 236.976C36.2384 247.957 86.3556 256.859 148.178 256.859Z" fill="#08A64B"/>
<path opacity="0.5" d="M148.178 256.859C210.001 256.859 260.118 247.957 260.118 236.976C260.118 225.996 210.001 217.094 148.178 217.094C86.3556 217.094 36.2384 225.996 36.2384 236.976C36.2384 247.957 86.3556 256.859 148.178 256.859Z" fill="white"/>
<path d="M257.949 134.171C257.949 134.171 257.949 131.735 254.539 128.319C251.128 124.903 248.93 122.96 248.93 122.96C248.93 122.96 247.225 128.563 250.392 131.979C252.718 134.377 255.24 136.577 257.932 138.556L257.949 134.171Z" fill="#08A64B"/>
<path d="M252.996 149.391C252.996 149.391 252.996 146.955 249.586 143.544C246.175 140.134 243.983 138.179 243.983 138.179C243.983 138.179 242.243 143.788 245.444 147.198C247.77 149.597 250.292 151.797 252.984 153.775L252.996 149.391Z" fill="#08A64B"/>
<path d="M257.735 138.324C257.735 138.324 257.99 135.9 261.748 132.866C265.507 129.833 267.885 128.128 267.885 128.128C267.885 128.128 268.992 133.881 265.478 136.938C262.906 139.077 260.161 140.997 257.271 142.68L257.735 138.324Z" fill="#08A64B"/>
<path d="M251.755 156.298C251.755 156.298 252.265 153.915 256.314 151.293C260.362 148.671 262.92 147.233 262.92 147.233C262.92 147.233 263.413 153.074 259.602 155.747C256.818 157.604 253.885 159.225 250.833 160.596L251.755 156.298Z" fill="#08A64B"/>
<path d="M252.88 175.896C252.88 175.896 252.88 173.455 256.29 170.044C259.701 166.634 261.893 164.685 261.893 164.685C261.893 164.685 263.598 170.288 260.432 173.698C258.107 176.1 255.585 178.302 252.892 180.281L252.88 175.896Z" fill="#08A64B"/>
<path d="M252.822 180.676C252.822 180.676 253.164 178.263 250.276 174.4C247.387 170.537 245.491 168.299 245.491 168.299C245.491 168.299 243.003 173.606 245.653 177.434C247.618 180.141 249.807 182.678 252.196 185.02L252.822 180.676Z" fill="#08A64B"/>
<path d="M249.458 194.88C249.458 194.88 249.458 192.444 252.868 189.034C256.279 185.623 258.471 183.674 258.471 183.674C258.471 183.674 260.182 189.277 257.01 192.688C254.685 195.089 252.163 197.291 249.47 199.271L249.458 194.88Z" fill="#08A64B"/>
<path d="M251.72 207.71C251.72 207.71 251.099 205.349 253.535 201.185C255.971 197.02 257.595 194.578 257.595 194.578C257.595 194.578 260.664 199.566 258.465 203.673C256.817 206.583 254.929 209.352 252.822 211.949L251.72 207.71Z" fill="#08A64B"/>
<path d="M258.257 133.545C258.086 136.083 257.774 138.61 257.323 141.114C255.977 148.074 252.602 152.575 251.256 158.874C249.91 165.172 253.779 173.275 252.741 181.36C251.703 189.445 248.559 193.94 249.458 199.34C250.357 204.74 255.183 219.872 255.183 219.872" stroke="#263238" stroke-width="0.75" stroke-linecap="round" stroke-linejoin="round"/>
<path d="M257.7 139.942L261.377 137.118" stroke="#263238" stroke-width="0.75" stroke-linecap="round" stroke-linejoin="round"/>
<path d="M257.874 136.694L256.331 133.957" stroke="#263238" stroke-width="0.75" stroke-linecap="round" stroke-linejoin="round"/>
<path d="M251.459 158.584C251.459 158.584 254.539 156.264 257.7 153.944" stroke="#263238" stroke-width="0.75" stroke-linecap="round" stroke-linejoin="round"/>
<path d="M252.834 153.346C251.334 150.531 249.556 147.873 247.527 145.412" stroke="#263238" stroke-width="0.75" stroke-linecap="round" stroke-linejoin="round"/>
<path d="M252.996 179.359C254.754 176.12 256.973 173.155 259.585 170.555" stroke="#263238" stroke-width="0.75" stroke-linecap="round" stroke-linejoin="round"/>
<path d="M252.399 182.781C251.465 180.582 250.35 178.466 249.064 176.453C247.271 173.803 247.01 173.46 247.01 173.46" stroke="#263238" stroke-width="0.75" stroke-linecap="round" stroke-linejoin="round"/>
<path d="M249.458 199.334C250.236 197.396 251.163 195.521 252.23 193.726C253.296 192.062 254.497 190.489 255.821 189.022" stroke="#263238" stroke-width="0.75" stroke-linecap="round" stroke-linejoin="round"/>
<path d="M252.845 211.949C252.667 210.101 252.986 208.239 253.767 206.555C255.049 204.073 256.505 200.825 257.102 199.543" stroke="#263238" stroke-width="0.75" stroke-linecap="round" stroke-linejoin="round"/>
<path d="M235.608 166.727C235.608 166.727 235.341 165.201 237.11 162.667C238.879 160.132 240.045 158.694 240.045 158.694C240.045 158.694 241.721 162.029 240.108 164.494C238.906 166.252 237.56 167.907 236.083 169.441L235.608 166.727Z" fill="#08A64B"/>
<path d="M240.364 175.74C240.364 175.74 240.103 174.215 241.872 171.68C243.641 169.145 244.801 167.707 244.801 167.707C244.801 167.707 246.483 171.036 244.864 173.507C243.663 175.264 242.317 176.917 240.839 178.449L240.364 175.74Z" fill="#08A64B"/>
<path d="M236.193 169.308C236.193 169.308 235.77 167.817 233.085 166.321C230.399 164.824 228.717 164.001 228.717 164.001C228.717 164.001 228.653 167.73 231.188 169.261C233.032 170.326 234.963 171.234 236.959 171.976L236.193 169.308Z" fill="#08A64B"/>
<path d="M241.895 179.928C241.895 179.928 241.315 178.489 238.49 177.289C235.666 176.088 233.908 175.456 233.908 175.456C233.908 175.456 234.233 179.168 236.913 180.432C238.86 181.294 240.876 181.993 242.939 182.52L241.895 179.928Z" fill="#08A64B"/>
<path d="M243.316 192.339C243.316 192.339 243.055 190.814 240.543 189.045C238.032 187.276 236.443 186.29 236.443 186.29C236.443 186.29 235.985 189.99 238.339 191.788C240.063 193.038 241.886 194.144 243.791 195.094L243.316 192.339Z" fill="#08A64B"/>
<path d="M243.873 195.332C243.873 195.332 243.391 193.859 244.789 191.122C246.187 188.384 247.109 186.777 247.109 186.777C247.109 186.777 249.243 189.834 247.996 192.519C247.059 194.431 245.963 196.26 244.719 197.989L243.873 195.332Z" fill="#08A64B"/>
<path d="M248.153 207.64C248.153 207.64 248.333 206.097 250.734 204.16C253.135 202.223 254.666 201.179 254.666 201.179C254.666 201.179 255.339 204.844 253.089 206.77C251.442 208.12 249.684 209.329 247.834 210.383L248.153 207.64Z" fill="#08A64B"/>
<path d="M247.521 203.858C247.521 203.858 247.254 202.333 244.748 200.564C242.243 198.795 240.648 197.809 240.648 197.809C240.648 197.809 240.19 201.509 242.544 203.301C244.266 204.556 246.09 205.664 247.996 206.613L247.521 203.858Z" fill="#08A64B"/>
<path d="M247.486 212.17C247.486 212.17 247.619 210.621 245.636 208.272C243.652 205.923 242.37 204.572 242.37 204.572C242.37 204.572 240.99 208.052 242.817 210.372C244.165 212.019 245.649 213.55 247.254 214.948L247.486 212.17Z" fill="#08A64B"/>
<path d="M235.347 166.373C235.731 167.944 236.2 169.493 236.75 171.013C238.357 175.235 240.955 177.689 242.486 181.494C244.018 185.298 242.486 190.774 243.994 195.756C245.502 200.738 247.985 203.186 248.008 206.666C248.031 210.146 246.657 219.82 246.657 219.82" stroke="#263238" stroke-width="0.75" stroke-linecap="round" stroke-linejoin="round"/>
<path d="M236.391 170.323L233.775 168.948" stroke="#263238" stroke-width="0.75" stroke-linecap="round" stroke-linejoin="round"/>
<path d="M235.927 168.299L236.599 166.419" stroke="#263238" stroke-width="0.75" stroke-linecap="round" stroke-linejoin="round"/>
<path d="M242.33 181.331C242.33 181.331 240.143 180.217 237.91 179.115" stroke="#263238" stroke-width="0.75" stroke-linecap="round" stroke-linejoin="round"/>
<path d="M240.822 178.008C241.517 176.154 242.367 174.361 243.362 172.649" stroke="#263238" stroke-width="0.75" stroke-linecap="round" stroke-linejoin="round"/>
<path d="M243.6 194.526C242.145 192.687 240.432 191.068 238.513 189.718" stroke="#263238" stroke-width="0.75" stroke-linecap="round" stroke-linejoin="round"/>
<path d="M244.366 196.62C244.711 195.139 245.181 193.69 245.769 192.287C246.604 190.431 246.732 190.194 246.732 190.194" stroke="#263238" stroke-width="0.75" stroke-linecap="round" stroke-linejoin="round"/>
<path d="M247.886 209.31C248.737 208.263 249.678 207.292 250.699 206.41C251.348 205.93 251.957 205.399 252.52 204.821" stroke="#263238" stroke-width="0.75" stroke-linecap="round" stroke-linejoin="round"/>
<path d="M248.008 206.666C247.308 205.536 246.523 204.462 245.659 203.452C244.81 202.526 243.887 201.671 242.898 200.895" stroke="#263238" stroke-width="0.75" stroke-linecap="round" stroke-linejoin="round"/>
<path d="M247.254 214.948C247.165 213.77 246.765 212.637 246.094 211.665C245.021 210.25 243.774 208.371 243.24 207.605" stroke="#263238" stroke-width="0.75" stroke-linecap="round" stroke-linejoin="round"/>
<path d="M242.347 218.567H258.987V227.169C258.987 227.552 258.835 227.919 258.564 228.19C258.294 228.461 257.926 228.613 257.543 228.613H243.791C243.408 228.613 243.041 228.461 242.77 228.19C242.499 227.919 242.347 227.552 242.347 227.169V218.567Z" fill="#263238" stroke="#263238" stroke-linecap="round" stroke-linejoin="round"/>
<path d="M46.5392 145.673C46.5392 145.673 46.5392 143.596 43.6392 140.696C40.7392 137.796 38.86 136.137 38.86 136.137C38.86 136.137 37.41 140.905 40.1012 143.805C42.0846 145.846 44.2341 147.718 46.5276 149.402L46.5392 145.673Z" fill="#08A64B"/>
<path d="M42.34 158.613C42.34 158.613 42.34 156.542 39.44 153.642C36.54 150.742 34.6608 149.06 34.6608 149.06C34.6608 149.06 33.2108 153.822 35.902 156.728C37.8873 158.776 40.0409 160.654 42.34 162.342V158.613Z" fill="#08A64B"/>
<path d="M46.3594 149.199C46.3594 149.199 46.574 147.14 49.7698 144.559C52.9656 141.978 54.9898 140.534 54.9898 140.534C54.9898 140.534 55.9294 145.423 52.9424 148.028C50.7617 149.845 48.4337 151.479 45.9824 152.911L46.3594 149.199Z" fill="#08A64B"/>
<path d="M41.2728 164.488C41.2728 164.488 41.7078 162.458 45.1472 160.231C48.5866 158.004 50.7674 156.751 50.7674 156.751C50.7674 156.751 51.185 161.71 47.9428 163.983C45.5777 165.565 43.0847 166.946 40.4898 168.113L41.2728 164.488Z" fill="#08A64B"/>
<path d="M42.2298 181.151C42.2298 181.151 42.2298 179.081 45.1298 176.175C48.0298 173.269 49.88 171.616 49.88 171.616C49.88 171.616 51.33 176.384 48.633 179.284C46.6542 181.327 44.5063 183.199 42.2124 184.881L42.2298 181.151Z" fill="#08A64B"/>
<path d="M42.1776 185.217C42.1776 185.217 42.4734 183.17 40.0142 179.881C37.555 176.593 35.9542 174.69 35.9542 174.69C35.9542 174.69 33.843 179.203 36.0934 182.462C37.7662 184.764 39.6287 186.921 41.6614 188.912L42.1776 185.217Z" fill="#08A64B"/>
<path d="M39.3182 197.275C39.3182 197.275 39.3182 195.205 42.2182 192.299C45.1182 189.393 46.98 187.74 46.98 187.74C46.98 187.74 48.43 192.508 45.7388 195.408C43.7554 197.448 41.6059 199.32 39.3124 201.005L39.3182 197.275Z" fill="#08A64B"/>
<path d="M41.2554 208.22C41.2554 208.22 40.7276 206.219 42.804 202.675C44.8804 199.131 46.284 197.055 46.284 197.055C46.284 197.055 48.8708 201.26 46.98 204.775C45.579 207.249 43.9746 209.602 42.1834 211.81L41.2554 208.22Z" fill="#08A64B"/>
<path d="M46.8002 145.139C46.6558 147.298 46.3905 149.448 46.0056 151.577C44.8456 157.499 41.992 161.321 40.8494 166.657C39.7068 171.993 42.9954 178.907 42.1138 185.797C41.2322 192.688 38.5526 196.492 39.3182 201.08C40.0838 205.668 44.1902 218.544 44.1902 218.544" stroke="#263238" stroke-width="0.75" stroke-linecap="round" stroke-linejoin="round"/>
<path d="M46.3304 150.58L49.4566 148.178" stroke="#263238" stroke-width="0.75" stroke-linecap="round" stroke-linejoin="round"/>
<path d="M46.4754 147.813L45.1646 145.487" stroke="#263238" stroke-width="0.75" stroke-linecap="round" stroke-linejoin="round"/>
<path d="M41.0234 166.46C41.0234 166.46 43.6392 164.494 46.3304 162.533" stroke="#263238" stroke-width="0.75" stroke-linecap="round" stroke-linejoin="round"/>
<path d="M42.1892 161.977C40.921 159.584 39.4171 157.325 37.7 155.231" stroke="#263238" stroke-width="0.75" stroke-linecap="round" stroke-linejoin="round"/>
<path d="M42.34 184.098C43.8353 181.344 45.7226 178.821 47.9428 176.61" stroke="#263238" stroke-width="0.75" stroke-linecap="round" stroke-linejoin="round"/>
<path d="M41.818 187.009C41.0255 185.14 40.0788 183.339 38.9876 181.627C37.4564 179.371 37.2476 179.081 37.2476 179.081" stroke="#263238" stroke-width="0.75" stroke-linecap="round" stroke-linejoin="round"/>
<path d="M39.3182 201.08C39.982 199.434 40.7692 197.84 41.673 196.313C42.5809 194.899 43.6032 193.563 44.7296 192.316" stroke="#263238" stroke-width="0.75" stroke-linecap="round" stroke-linejoin="round"/>
<path d="M42.2008 211.81C42.049 210.239 42.3193 208.655 42.9838 207.222C44.0742 205.111 45.3038 202.35 45.82 201.26" stroke="#263238" stroke-width="0.75" stroke-linecap="round" stroke-linejoin="round"/>
<path d="M27.5384 173.356C27.5384 173.356 27.318 172.057 28.8202 169.922C30.3224 167.788 31.3142 166.547 31.3142 166.547C31.3142 166.547 32.741 169.377 31.3664 171.488C30.3451 172.983 29.2004 174.39 27.9444 175.693L27.5384 173.356Z" fill="#08A64B"/>
<path d="M31.5868 181.018C31.5868 181.018 31.3606 179.719 32.8686 177.584C34.3766 175.45 35.3626 174.203 35.3626 174.203C35.3626 174.203 36.7894 177.039 35.4148 179.15C34.3935 180.645 33.2489 182.052 31.9928 183.355L31.5868 181.018Z" fill="#08A64B"/>
<path d="M28.0372 175.548C28.0372 175.548 27.6776 174.284 25.3982 173.014C23.1188 171.744 21.6862 171.053 21.6862 171.053C21.6862 171.053 21.6282 174.22 23.78 175.531C25.3482 176.439 26.9895 177.216 28.6868 177.851L28.0372 175.548Z" fill="#08A64B"/>
<path d="M32.886 184.585C32.886 184.585 32.393 183.361 29.986 182.335C27.579 181.308 26.1 180.774 26.1 180.774C26.1 180.774 26.3784 183.935 28.6578 185.008C30.3125 185.743 32.0256 186.339 33.7792 186.789L32.886 184.585Z" fill="#08A64B"/>
<path d="M34.0982 195.135C34.0982 195.135 33.872 193.836 31.7376 192.334C29.6032 190.831 28.2576 190.014 28.2576 190.014C28.2576 190.014 27.84 193.14 29.8642 194.665C31.3305 195.73 32.8824 196.671 34.5042 197.478L34.0982 195.135Z" fill="#08A64B"/>
<path d="M34.568 197.681C34.568 197.681 34.162 196.429 35.3452 194.103C36.5284 191.777 37.3346 190.408 37.3346 190.408C37.3346 190.408 39.15 193.007 38.0886 195.292C37.2922 196.914 36.3609 198.466 35.3046 199.932L34.568 197.681Z" fill="#08A64B"/>
<path d="M38.2104 208.168C38.2104 208.168 38.3612 206.857 40.4086 205.233C42.456 203.609 43.7494 202.698 43.7494 202.698C43.7494 202.698 44.3294 205.813 42.4096 207.454C41.0077 208.606 39.5118 209.638 37.9378 210.54L38.2104 208.168Z" fill="#08A64B"/>
<path d="M37.7 204.931C37.7 204.931 37.4738 203.632 35.3394 202.13C33.205 200.628 31.8594 199.81 31.8594 199.81C31.8594 199.81 31.465 202.959 33.4718 204.485C34.9374 205.55 36.4895 206.491 38.1118 207.298L37.7 204.931Z" fill="#08A64B"/>
<path d="M37.642 211.996C37.642 211.996 37.7522 210.685 36.0702 208.684C34.3882 206.683 33.292 205.54 33.292 205.54C33.292 205.54 32.132 208.481 33.669 210.47C34.8171 211.87 36.0801 213.172 37.4448 214.362L37.642 211.996Z" fill="#08A64B"/>
<path d="M27.318 173.054C27.6461 174.391 28.0449 175.71 28.5128 177.004C29.8758 180.594 32.0914 182.677 33.3906 185.913C34.6898 189.149 33.3906 193.824 34.6724 198.041C35.9542 202.257 38.0654 204.363 38.0828 207.321C38.1002 210.279 36.9228 218.509 36.9228 218.509" stroke="#263238" stroke-width="0.75" stroke-linecap="round" stroke-linejoin="round"/>
<path d="M28.2054 176.413L25.984 175.247" stroke="#263238" stroke-width="0.75" stroke-linecap="round" stroke-linejoin="round"/>
<path d="M27.8168 174.696L28.3852 173.095" stroke="#263238" stroke-width="0.75" stroke-linecap="round" stroke-linejoin="round"/>
<path d="M33.2572 185.774C33.2572 185.774 31.4012 184.829 29.4988 183.889" stroke="#263238" stroke-width="0.75" stroke-linecap="round" stroke-linejoin="round"/>
<path d="M31.9754 182.949C32.5695 181.373 33.2931 179.848 34.1388 178.391" stroke="#263238" stroke-width="0.75" stroke-linecap="round" stroke-linejoin="round"/>
<path d="M34.3534 196.997C33.1142 195.442 31.6569 194.075 30.0266 192.937" stroke="#263238" stroke-width="0.75" stroke-linecap="round" stroke-linejoin="round"/>
<path d="M34.9856 198.766C35.2815 197.507 35.6811 196.276 36.1804 195.083C36.8938 193.505 36.9982 193.297 36.9982 193.297" stroke="#263238" stroke-width="0.75" stroke-linecap="round" stroke-linejoin="round"/>
<path d="M37.9842 209.566C38.7056 208.671 39.5053 207.842 40.3738 207.089C40.9254 206.681 41.4433 206.229 41.9224 205.738" stroke="#263238" stroke-width="0.75" stroke-linecap="round" stroke-linejoin="round"/>
<path d="M38.0828 207.321C37.4891 206.36 36.8221 205.447 36.0876 204.589C35.3753 203.8 34.5994 203.071 33.7676 202.408" stroke="#263238" stroke-width="0.75" stroke-linecap="round" stroke-linejoin="round"/>
<path d="M37.4448 214.362C37.3666 213.359 37.0244 212.395 36.453 211.566C35.5424 210.366 34.4636 208.765 34.0286 208.139" stroke="#263238" stroke-width="0.75" stroke-linecap="round" stroke-linejoin="round"/>
<path d="M32.3872 218.567H49.0274V227.169C49.0274 227.36 48.9893 227.55 48.9153 227.727C48.8413 227.903 48.7328 228.064 48.5962 228.198C48.4597 228.332 48.2977 228.438 48.1198 228.51C47.9419 228.581 47.7516 228.616 47.56 228.613H33.8314C33.4484 228.613 33.081 228.461 32.8102 228.19C32.5394 227.919 32.3872 227.552 32.3872 227.169V218.567Z" fill="#263238" stroke="#263238" stroke-linecap="round" stroke-linejoin="round"/>
<path d="M190.901 110.78C188.871 113.307 187.493 116.295 186.888 119.48C185.82 124.891 183.193 135.059 183.524 138.585C183.854 142.111 184.684 144.078 187.868 144.652C191.052 145.226 192.867 142.436 193.529 140.058C193.948 138.493 194.275 136.905 194.509 135.302L195.164 122.38C195.164 122.38 194.004 114.614 193.453 112.978C192.902 111.342 190.901 110.78 190.901 110.78Z" fill="#08A64B" stroke="#263238" stroke-linecap="round" stroke-linejoin="round"/>
<path d="M233.554 108.193C233.554 108.193 234.714 107.938 235.816 111.963C236.918 115.988 238.247 121.765 240.422 128.887C242.597 136.01 243.02 138.359 242.852 139.948C242.684 141.537 241.431 143.3 237.052 143.3C232.673 143.3 230.672 141.624 229.512 137.854C228.352 134.084 228.52 122.438 228.439 120.93C228.358 119.422 232.209 107.439 233.554 108.193Z" fill="#08A64B" stroke="#263238" stroke-linecap="round" stroke-linejoin="round"/>
<path d="M203.638 233.299C203.638 233.299 200.79 236.315 199.114 238.247C197.438 240.178 196.852 241.344 199.613 242.515C202.374 243.687 206.654 241.935 207.913 240.004C209.171 238.073 211.851 235.898 211.851 235.898C211.851 235.898 213.272 234.308 211.427 232.046C209.583 229.784 204.473 232.377 203.638 233.299Z" fill="white" stroke="#263238" stroke-linecap="round" stroke-linejoin="round"/>
<path d="M220.731 235.816C220.731 235.816 223.578 236.234 225.086 237.556C226.594 238.879 231.878 241.831 235.393 240.404C238.908 238.977 236.652 236.634 234.726 234.958C233.644 233.999 232.464 233.157 231.205 232.446C231.205 232.446 225.591 232.029 223.085 233.282C220.58 234.534 220.731 235.816 220.731 235.816Z" fill="white" stroke="#263238" stroke-linecap="round" stroke-linejoin="round"/>
<path d="M200.367 196.846C200.367 196.846 201.712 206.903 201.04 209.919C200.367 212.935 198.441 214.699 199.88 217.633C200.944 219.902 201.724 222.295 202.2 224.756C202.368 225.759 201.446 226.009 202.2 227.076C202.749 227.764 203.2 228.525 203.539 229.338C203.539 229.593 202.536 231.014 202.536 231.35C202.536 231.687 203.041 233.781 203.041 233.781C203.041 233.781 205.72 233.201 207.646 233.949C209.041 234.549 210.362 235.308 211.584 236.211C211.584 236.211 213.324 235.538 213.933 234.535C214.261 234.009 214.46 233.412 214.513 232.795C214.594 232.458 215.435 230.695 215.354 229.355C215.273 228.015 214.345 225.168 214.345 223.491C214.345 221.815 215.603 219.971 215.603 217.291C215.603 214.612 214.345 197.432 214.345 197.432L215.505 197.009C215.505 197.009 217.349 207.234 217.349 212.013C217.349 216.792 215.928 222.737 216.85 223.909C217.773 225.081 218.857 226.09 218.857 226.339C218.857 226.589 217.767 228.433 218.022 229.355C218.42 230.567 218.755 231.798 219.025 233.044C219.025 233.549 219.948 235.474 220.702 235.811C221.456 236.147 221.862 235.387 226.316 234.471C230.77 233.554 233.276 233.798 232.853 232.458C232.429 231.118 232.017 229.355 231.513 229.019C231.008 228.682 231.681 228.439 231.513 227.18C231.345 225.922 230.422 224.582 229.587 222.569C228.752 220.557 229.918 218.382 230.254 216.282C230.591 214.182 230.086 211.062 229.251 207.652C228.416 204.241 229.164 195.837 229.164 195.837L229.587 192.572C229.587 192.572 216.763 193.732 208.887 193.656L200.425 193.575C200.425 193.575 199.868 194.167 200.367 196.846Z" fill="#263238" stroke="#263238" stroke-linecap="round" stroke-linejoin="round"/>
<path d="M232.882 161.82C232.882 161.82 234.042 177.074 235.561 185.02C236.436 189.505 236.99 194.046 237.22 198.609H231.124C230.869 198.609 231.542 170.369 231.704 167.869C231.925 165.823 232.319 163.799 232.882 161.82Z" fill="#08A64B" stroke="#263238" stroke-linecap="round" stroke-linejoin="round"/>
<path d="M207.64 99.7599C207.64 99.7599 200.518 104.533 196.835 106.21C193.152 107.886 191.133 110.067 190.884 110.85C190.634 111.633 194.903 123.668 194.903 123.668C194.903 123.668 194.654 163.473 194.654 170.178C194.654 176.883 192.56 197.072 192.809 197.072C193.059 197.072 199.769 201.434 208.98 201.683C218.19 201.933 221.16 200.593 224.06 200.593C226.96 200.593 232.76 200.593 232.858 199.758C232.957 198.923 233.027 180.397 233.108 171.767C233.189 163.137 233.276 157.018 233.108 155.597C232.94 154.176 230.596 123.499 230.596 123.499C230.596 123.499 232.336 118.39 233.363 114.283C234.39 110.177 234.366 109.672 233.108 107.834C231.849 105.995 222.407 100.984 220.731 100.34C218.671 99.619 216.526 99.1686 214.351 99.0001C212.773 98.8899 207.64 99.7599 207.64 99.7599Z" fill="#08A64B" stroke="#263238" stroke-linecap="round" stroke-linejoin="round"/>
<path d="M191.905 133.835C191.905 133.835 192.995 136.346 194.335 137.437C195.675 138.527 198.778 139.032 199.445 140.708C200.112 142.384 199.445 143.637 198.691 145.65C197.937 147.662 198.36 151.015 195.593 151.45C192.827 151.885 191.992 150.87 189.724 149.269C187.456 147.668 186.041 147.424 184.701 144.994C183.361 142.564 182.961 139.194 184.121 137.373" fill="#08A64B"/>
<path d="M191.905 133.835C191.905 133.835 192.995 136.346 194.335 137.437C195.675 138.527 198.778 139.032 199.445 140.708C200.112 142.384 199.445 143.637 198.691 145.65C197.937 147.662 198.36 151.015 195.593 151.45C192.827 151.885 191.992 150.87 189.724 149.269C187.456 147.668 186.041 147.424 184.701 144.994C183.361 142.564 182.961 139.194 184.121 137.373" stroke="#263238" stroke-linecap="round" stroke-linejoin="round"/>
<path d="M207.327 96.4597L207.06 103.501C207.06 103.501 206.393 104.504 210.412 104.754C212.996 104.889 215.586 104.694 218.121 104.174L217.454 96.5525C217.454 96.5525 213.26 98.2925 210.83 97.4747C209.69 97.0459 208.519 96.7066 207.327 96.4597Z" fill="white" stroke="#263238" stroke-linecap="round" stroke-linejoin="round"/>
<path d="M205.732 94.7024C205.732 94.7024 205.152 102.822 204.728 105.258C204.305 107.694 204.392 109.197 205.308 109.782C206.225 110.368 211.59 112.468 214.356 112.3C217.123 112.131 221.316 109.614 221.647 108.86C221.978 108.106 219.141 96.28 219.141 96.28L218.718 96.7846C218.718 96.7846 219.472 102.985 219.223 103.165C218.973 103.344 209.252 102.66 207.489 102.585C205.726 102.509 206.236 102.416 206.236 102.416L206.149 95.294L205.732 94.7024Z" fill="white" stroke="#263238" stroke-linecap="round" stroke-linejoin="round"/>
<path d="M205.465 104.365C205.465 104.365 214.623 105.716 220.116 104.655" stroke="#263238" stroke-width="0.5" stroke-miterlimit="10"/>
<path d="M205.082 106.488C205.082 106.488 211.462 109.185 220.116 106.772" stroke="#263238" stroke-width="0.5" stroke-miterlimit="10"/>
<path d="M205.755 108.994C205.755 108.994 211.828 112.271 220.116 108.796" stroke="#263238" stroke-width="0.5" stroke-miterlimit="10"/>
<path d="M220.568 86.1531C220.777 83.5779 220.951 80.9331 220.313 79.6165C219.31 77.5227 216.288 75.0925 211.932 75.2607C207.576 75.4289 203.887 77.1051 203.974 82.4643C203.974 82.4643 204.16 84.0593 204.375 86.0139C203.976 86.8674 203.836 87.8195 203.974 88.7515C204.11 89.6458 204.423 90.5038 204.897 91.2745C204.937 91.7733 204.966 92.2025 204.978 92.5215C205.059 94.7835 206.567 97.4631 207.913 98.3853C209.258 99.3075 211.764 100.734 213.359 100.734C214.954 100.734 217.796 99.2263 219.159 97.0455C220.214 95.3055 220.319 94.1455 220.319 92.0981H220.4C220.64 91.0228 220.782 89.9279 220.823 88.8269C220.858 87.9283 220.772 87.0291 220.568 86.1531Z" fill="white" stroke="#263238" stroke-linecap="round" stroke-linejoin="round"/>
<path d="M204.74 86.6578C204.74 86.6578 204.989 88.7516 205.407 88.6646C205.825 88.5776 206.329 85.5674 206.329 85.5674L204.74 86.6578Z" fill="#263238" stroke="#263238" stroke-linecap="round" stroke-linejoin="round"/>
<path d="M218.973 86.4199C218.973 86.4199 218.973 88.7689 219.553 89.1053C220.133 89.4417 220.557 87.0927 220.557 87.0927C220.081 86.7605 219.542 86.5314 218.973 86.4199Z" fill="#263238" stroke="#263238" stroke-linecap="round" stroke-linejoin="round"/>
<path d="M220.313 79.6165C219.31 77.5227 216.288 75.0925 211.932 75.2607C207.576 75.4289 203.887 77.1051 203.974 82.4643C203.974 82.4643 204.16 84.0593 204.375 86.0139C204.11 86.5806 203.959 87.1932 203.928 87.8177C205.558 86.5127 208.609 84.6451 212.437 84.9815C215.415 85.321 218.279 86.3303 220.812 87.9337C220.785 87.334 220.704 86.7379 220.568 86.1531C220.777 83.5779 220.98 80.9505 220.313 79.6165Z" fill="#08A64B" stroke="#263238" stroke-linecap="round" stroke-linejoin="round"/>
<path d="M211.346 88.16L210.842 91.176C210.842 91.176 209.919 91.2572 210.262 91.843C210.604 92.4288 212.355 93.1016 213.196 92.8522C214.037 92.6028 214.873 91.7618 214.786 91.4254C214.76 91.3248 214.707 91.2329 214.634 91.1595C214.56 91.086 214.469 91.0336 214.368 91.0078L213.278 87.9048" stroke="#263238" stroke-linecap="round" stroke-linejoin="round"/>
<path d="M210.424 94.366C212.033 94.7132 213.703 94.6554 215.284 94.1978" stroke="#263238" stroke-linecap="round" stroke-linejoin="round"/>
<path d="M209.502 88.038C209.502 88.4788 209.276 88.8326 208.997 88.8326C208.719 88.8326 208.498 88.4788 208.498 88.038C208.498 87.5972 208.725 87.2434 208.997 87.2434C209.27 87.2434 209.502 87.5798 209.502 88.038Z" fill="#263238"/>
<path d="M215.87 87.9975C215.87 88.4383 215.644 88.7921 215.371 88.7921C215.099 88.7921 214.867 88.4383 214.867 87.9975C214.867 87.5567 215.093 87.2029 215.371 87.2029C215.65 87.2029 215.87 87.5799 215.87 87.9975Z" fill="#263238"/>
<path d="M207.576 86.8259C207.576 86.8259 208.156 85.3991 210.006 85.9037" stroke="#263238" stroke-linecap="round" stroke-linejoin="round"/>
<path d="M213.776 85.9849C213.776 85.9849 215.516 84.7263 216.792 86.9071" stroke="#263238" stroke-linecap="round" stroke-linejoin="round"/>
<path d="M197.937 144.31C197.937 144.31 203.052 145.47 204.224 145.232C205.759 144.945 207.166 144.182 208.243 143.051C209.757 141.543 211.01 140.284 211.01 141.543C211.015 142.04 210.921 142.532 210.734 142.993C210.547 143.453 210.27 143.871 209.919 144.223C209.339 144.895 208.243 145.649 207.994 146.74C207.744 147.83 208.081 148.665 209.421 149.17C210.76 149.675 214.948 150.423 214.948 151.49C214.948 152.557 214.612 155.098 213.104 155.933C211.596 156.768 207.913 156.182 207.913 156.182C207.913 156.182 210.929 157.858 210.343 158.282C209.757 158.705 207.994 158.114 207.159 157.36C206.323 156.606 205.999 156.519 203.551 154.761C201.103 153.004 199.027 150.904 197.855 150.237C197.221 149.94 196.634 149.549 196.115 149.077C195.443 148.497 195.193 147.337 195.692 145.98C195.862 145.578 196.114 145.216 196.431 144.916C196.749 144.617 197.125 144.386 197.536 144.24L197.937 144.31Z" fill="white" stroke="#263238" stroke-linecap="round" stroke-linejoin="round"/>
<path d="M237.742 134.757C237.742 134.757 231.71 135.917 231.124 136.346C230.538 136.775 231.124 138.527 231.124 138.527C231.124 138.527 226.009 140.957 224.083 142.297C222.157 143.637 223.915 146.322 224.002 146.653C224.002 146.653 225.51 151.6 228.021 153.276C230.533 154.953 233.131 154.361 235.648 151.681C238.165 149.002 239.755 145.301 240.926 144.054C242.098 142.807 243.356 141.624 242.939 138.834C242.521 136.045 240.34 135.731 240.34 135.731" fill="#08A64B"/>
<path d="M237.742 134.757C237.742 134.757 231.71 135.917 231.124 136.346C230.538 136.775 231.124 138.527 231.124 138.527C231.124 138.527 226.009 140.957 224.083 142.297C222.157 143.637 223.915 146.322 224.002 146.653C224.002 146.653 225.51 151.6 228.021 153.276C230.533 154.953 233.131 154.361 235.648 151.681C238.165 149.002 239.755 145.301 240.926 144.054C242.098 142.807 243.356 141.624 242.939 138.834C242.521 136.045 240.34 135.731 240.34 135.731" stroke="#263238" stroke-linecap="round" stroke-linejoin="round"/>
<path d="M225.423 145.818C225.423 145.818 221.572 146.821 220.481 146.908C219.391 146.995 219.223 147.158 218.556 146.653C217.889 146.148 214.78 144.333 213.336 142.634C211.891 140.934 210.818 140.621 210.987 141.543C211.155 142.465 210.818 143.132 211.828 143.805C212.837 144.478 213.834 146.322 213.834 147.076C213.834 147.83 213.753 148.08 211.659 148.816C209.566 149.553 204.786 150.493 205.279 151.078C205.772 151.664 206.787 151.832 207.878 151.751C208.968 151.67 213.492 150.997 213.823 151.247C213.932 151.358 214.014 151.494 214.061 151.643C214.109 151.791 214.121 151.949 214.097 152.104C214.073 152.258 214.013 152.405 213.922 152.532C213.831 152.659 213.712 152.763 213.573 152.836C212.819 153.34 210.14 153.34 208.545 153.509C206.95 153.677 206.869 154.089 207.541 154.431C208.622 154.834 209.77 155.021 210.923 154.982C212.263 154.982 213.823 154.848 213.156 155.266C212.489 155.684 211.561 155.771 209.885 156.02C208.208 156.269 207.623 155.521 207.878 156.188C208.133 156.855 210.14 156.861 212.651 156.768C214.937 156.651 217.157 155.961 219.107 154.761C220.783 153.752 226.896 152.244 227.319 151.914C227.743 151.583 228.404 149.646 227.986 147.303C227.569 144.959 225.423 145.818 225.423 145.818Z" fill="white" stroke="#263238" stroke-linecap="round" stroke-linejoin="round"/>
<path d="M232.046 136.01C233.679 134.659 235.448 133.481 237.324 132.495" stroke="#263238" stroke-linecap="round" stroke-linejoin="round"/>
<path d="M208.916 151.798C208.916 151.798 213.684 151.252 214.165 151.183C214.646 151.113 215.528 151.658 215.116 152.273C214.704 152.888 214.501 152.749 212.796 153.091C211.104 153.348 209.392 153.463 207.681 153.433" fill="white"/>
<path d="M208.916 151.798C208.916 151.798 213.684 151.252 214.165 151.183C214.646 151.113 215.528 151.658 215.116 152.273C214.704 152.888 214.501 152.749 212.796 153.091C211.104 153.348 209.392 153.463 207.681 153.433" stroke="#263238" stroke-linecap="round" stroke-linejoin="round"/>
<path d="M209.461 155.069C209.461 155.069 214.774 154.726 214.641 155.138C214.507 155.55 214.165 156.089 212.257 156.229C210.349 156.368 208.197 156.501 206.393 155.614" fill="white"/>
<path d="M209.461 155.069C209.461 155.069 214.774 154.726 214.641 155.138C214.507 155.55 214.165 156.089 212.257 156.229C210.349 156.368 208.197 156.501 206.393 155.614" stroke="#263238" stroke-linecap="round" stroke-linejoin="round"/>
<path d="M156.322 229.17C156.322 229.17 157.226 230.069 153.619 232.273C150.011 234.477 147.001 235.48 147.001 236.785C147.001 238.09 151.009 239.389 155.121 238.386C159.233 237.382 160.921 237.087 163.241 236.686C165.561 236.286 166.251 234.279 166.251 231.466C166.251 228.653 160.138 227.986 159.436 227.859C158.734 227.731 156.826 228.068 156.322 229.17Z" fill="white" stroke="#263238" stroke-linecap="round" stroke-linejoin="round"/>
<path d="M165.341 231.472C163.822 233.747 161.964 235.775 159.831 237.487C156.722 239.807 156.322 240.891 157.928 241.495C159.535 242.098 164.14 242.295 167.249 241.094C170.358 239.894 171.86 238.09 172.759 237.284C173.658 236.478 174.162 236.982 174.162 233.775C174.162 230.567 170.752 229.465 167.951 229.668C165.149 229.871 165.341 231.472 165.341 231.472Z" fill="white" stroke="#263238" stroke-linecap="round" stroke-linejoin="round"/>
<path d="M153.12 166.129C153.12 166.129 154.025 184.37 154.326 189.683C154.628 194.996 156.832 214.936 157.226 219.646C157.621 224.355 157.627 225.759 157.627 225.759C157.627 225.759 155.823 227.064 155.823 227.366C155.823 227.667 155.62 230.469 155.62 230.469C156.951 231.202 158.364 231.774 159.831 232.174C161.441 232.537 163.1 232.639 164.743 232.475C164.743 232.475 168.049 233.577 170.856 234.378C173.664 235.178 174.766 234.778 174.766 234.778C174.766 234.778 175.566 230.77 175.763 229.465C175.96 228.16 179.371 214.333 179.371 208.005C179.371 201.677 178.57 198.783 177.37 195.077C176.169 191.371 178.971 178.135 179.974 173.327C180.549 170.645 180.985 167.934 181.279 165.207C181.279 165.207 172.66 169.638 153.12 166.129Z" fill="#263238" stroke="#263238" stroke-linecap="round" stroke-linejoin="round"/>
<path d="M164.343 172.26C164.343 172.26 163.838 185.6 163.838 190.698C163.838 195.796 165.143 202.025 165.741 208.04C166.338 214.055 165.944 223.874 165.242 225.579C164.54 227.284 164.041 227.899 164.14 229.187C164.239 230.474 164.343 232.29 164.343 232.29" stroke="white" stroke-linecap="round" stroke-linejoin="round"/>
<path d="M162.736 94.6674C162.736 94.6674 162.156 92.8636 161.228 93.5654C160.3 94.2672 160.933 95.5722 161.733 96.8772C162.533 98.1822 163.432 98.478 163.537 97.7762C163.641 97.0744 162.736 94.6674 162.736 94.6674Z" fill="white" stroke="#263238" stroke-linecap="round" stroke-linejoin="round"/>
<path d="M162.736 95.4737L161.733 92.5737C161.733 92.5737 157.528 90.8685 158.833 86.6577C160.138 82.4469 170.16 78.6421 172.863 78.6421C175.566 78.6421 180.78 82.2497 181.685 86.4605C182.59 90.6713 179.58 94.4761 179.58 94.4761C179.58 94.4761 178.275 98.1823 177.26 97.9851C176.245 97.7879 176.854 94.8763 175.554 92.5737C174.255 90.2711 173.449 89.0937 172.045 89.6737C170.642 90.2537 164.83 91.9937 164.331 92.7767C163.833 93.5597 162.939 95.9725 162.736 95.4737Z" fill="#263238" stroke="#263238" stroke-linecap="round" stroke-linejoin="round"/>
<path d="M183.083 136.764L183.582 139.368L177.37 148.99L178.773 151.194C181.72 149.229 184.413 146.907 186.789 144.281C190.797 139.873 191.197 139.269 191.197 137.466C191.197 135.662 189.799 132.553 189.799 132.553C189.799 132.553 186.992 136.764 183.083 136.764Z" fill="white" stroke="#263238" stroke-linecap="round" stroke-linejoin="round"/>
<path d="M149.106 130.952C149.106 130.952 147.1 135.761 147.506 137.263C147.912 138.765 154.819 147.587 154.819 147.587L156.02 144.281C156.02 144.281 153.416 138.869 153.416 137.066C153.416 135.262 154.321 131.753 154.321 131.753L149.106 130.952Z" stroke="#263238" stroke-linecap="round" stroke-linejoin="round"/>
<path d="M166.849 107.097C166.849 107.097 158.23 110.403 156.623 110.908C155.017 111.412 153.915 111.708 153.816 112.207C153.717 112.706 148.909 125.036 148.016 126.742C147.123 128.447 145.911 130.349 145.911 130.349C147.078 131.079 148.282 131.749 149.518 132.356C150.779 132.907 152.088 133.342 153.427 133.655L154.007 140.575L148.091 166.628C148.091 166.628 159.918 169.934 167.811 169.638C172.837 169.467 177.807 168.52 182.543 166.831C184.051 166.327 186.354 165.428 186.354 165.428L178.814 137.066L179.394 132.855L179.794 136.967C179.794 136.967 183.802 137.866 186.105 137.263C188.407 136.66 191.325 134.363 191.325 134.363L183.906 111.215L170.079 107.404L166.849 107.097Z" fill="#CBF2DC" stroke="#263238" stroke-linecap="round" stroke-linejoin="round"/>
<path d="M176.587 109.168L170.155 107.399L166.849 107.097L163.873 108.257C163.815 109.835 163.74 112.52 163.74 115.739C163.74 120.959 164.32 125.564 165.845 124.659C167.371 123.755 174.545 114.04 175.763 111.319C176.092 110.624 176.368 109.905 176.587 109.168Z" fill="#CBF2DC" stroke="#263238" stroke-linecap="round" stroke-linejoin="round"/>
<path d="M179.475 132.855C179.272 132.658 178.373 124.033 178.373 124.033" stroke="#263238" stroke-linecap="round" stroke-linejoin="round"/>
<path d="M153.416 133.655C153.416 133.655 152.714 130.251 152.917 128.946C153.12 127.641 154.518 119.927 154.518 119.927" stroke="#263238" stroke-linecap="round" stroke-linejoin="round"/>
<path d="M156.826 148.091C156.826 148.091 152.215 149.594 152.215 149.895C152.215 150.197 152.111 151.595 152.111 151.595L156.826 149.391V148.091Z" stroke="#263238" stroke-linecap="round" stroke-linejoin="round"/>
<path d="M169.053 148.793L168.85 150.092L178.872 152.697L179.371 151.699L169.053 148.793Z" stroke="#263238" stroke-linecap="round" stroke-linejoin="round"/>
<path d="M172.359 128.864C172.222 128.864 172.09 128.81 171.994 128.713C171.897 128.616 171.842 128.485 171.842 128.348C171.842 126.608 172.707 122.409 173.548 118.349C174.215 115.118 174.847 112.062 174.847 111.105C174.873 110.577 174.786 110.05 174.592 109.559C174.398 109.068 174.101 108.624 173.722 108.257C172.521 107.143 170.387 106.691 167.382 106.911C161.112 107.375 160.654 121.411 160.648 121.545C160.645 121.679 160.59 121.808 160.493 121.902C160.397 121.996 160.267 122.049 160.132 122.049C160.064 122.047 159.998 122.031 159.936 122.003C159.874 121.975 159.819 121.935 159.772 121.886C159.726 121.836 159.69 121.778 159.666 121.714C159.642 121.651 159.631 121.583 159.633 121.516C159.633 120.901 160.126 106.436 167.324 105.856C170.63 105.618 173.026 106.157 174.441 107.48C174.923 107.944 175.302 108.505 175.553 109.125C175.804 109.746 175.921 110.412 175.897 111.081C175.897 112.143 175.288 115.107 174.58 118.534C173.785 122.357 172.892 126.689 172.892 128.325C172.895 128.396 172.884 128.467 172.858 128.534C172.833 128.6 172.794 128.661 172.744 128.711C172.693 128.762 172.633 128.802 172.567 128.828C172.501 128.854 172.43 128.867 172.359 128.864Z" fill="#263238" stroke="#263238" stroke-linecap="round" stroke-linejoin="round"/>
<path d="M165.741 103.994C165.741 103.994 165.741 106.894 165.642 107.474C165.544 108.054 165.642 110.583 165.642 113.993C165.642 117.404 166.222 119.7 167.046 118.9C167.869 118.1 173.159 110.983 173.461 109.579C173.638 108.79 173.739 107.986 173.762 107.178L174.162 103.165C174.162 103.165 167.951 104.968 165.341 104.168" fill="white"/>
<path d="M165.741 103.994C165.741 103.994 165.741 106.894 165.642 107.474C165.544 108.054 165.642 110.583 165.642 113.993C165.642 117.404 166.222 119.7 167.046 118.9C167.869 118.1 173.159 110.983 173.461 109.579C173.638 108.79 173.739 107.986 173.762 107.178L174.162 103.165C174.162 103.165 167.951 104.968 165.341 104.168" stroke="#263238" stroke-linecap="round" stroke-linejoin="round"/>
<path d="M176.065 97.9793C176.587 101.461 176.721 104.989 176.465 108.501C176.065 114.614 175.34 117.479 173.565 118.361C171.79 119.242 174.081 120.24 176.784 120.338C179.487 120.437 183.5 120.037 184.202 112.021C184.904 104.005 179.092 98.7913 178.588 97.7879C178.459 97.5549 178.265 97.3638 178.031 97.2373C177.796 97.1109 177.531 97.0544 177.265 97.0745C176.999 97.0947 176.745 97.1907 176.532 97.351C176.32 97.5114 176.157 97.7295 176.065 97.9793Z" fill="#263238" stroke="#263238" stroke-linecap="round" stroke-linejoin="round"/>
<path d="M156.525 128.563H156.484C156.414 128.558 156.345 128.54 156.282 128.508C156.219 128.476 156.164 128.431 156.119 128.377C156.075 128.322 156.042 128.259 156.023 128.191C156.003 128.123 155.999 128.052 156.008 127.983C156.008 127.698 156.588 120.988 160.132 120.988C163.676 120.988 163.757 127.443 163.757 127.722C163.757 127.858 163.703 127.99 163.606 128.087C163.509 128.183 163.378 128.238 163.241 128.238C163.104 128.238 162.973 128.183 162.876 128.087C162.779 127.99 162.725 127.858 162.725 127.722C162.725 127.664 162.649 122.026 160.138 122.026C157.98 122.026 157.174 126.382 157.047 128.064C157.041 128.198 156.983 128.325 156.886 128.418C156.788 128.511 156.659 128.563 156.525 128.563Z" fill="#263238"/>
<path d="M156.525 127.646C156.525 127.646 156.525 132.657 156.722 133.655C156.919 134.653 159.43 136.764 162.435 138.069" stroke="#263238" stroke-width="2" stroke-linecap="round" stroke-linejoin="round"/>
<path d="M163.038 127.02C163.038 127.02 163.235 132.031 162.238 134.235C161.24 136.439 158.23 137.344 156.925 137.843" stroke="#263238" stroke-width="2" stroke-linecap="round" stroke-linejoin="round"/>
<path d="M163.838 138.266C163.82 138.039 163.717 137.828 163.55 137.674C163.383 137.519 163.164 137.434 162.936 137.434C162.709 137.434 162.49 137.519 162.323 137.674C162.156 137.828 162.053 138.039 162.035 138.266C162.025 138.391 162.04 138.516 162.081 138.634C162.122 138.752 162.187 138.86 162.272 138.952C162.356 139.044 162.459 139.117 162.574 139.167C162.688 139.217 162.812 139.243 162.936 139.243C163.061 139.243 163.185 139.217 163.299 139.167C163.414 139.117 163.517 139.044 163.601 138.952C163.686 138.86 163.751 138.752 163.792 138.634C163.832 138.516 163.848 138.391 163.838 138.266Z" fill="white" stroke="#263238" stroke-linecap="round" stroke-linejoin="round"/>
<path d="M157.627 138.069C157.628 137.89 157.576 137.714 157.477 137.565C157.378 137.415 157.237 137.298 157.072 137.229C156.907 137.159 156.725 137.141 156.549 137.175C156.373 137.209 156.211 137.295 156.084 137.421C155.957 137.547 155.87 137.709 155.835 137.884C155.799 138.06 155.817 138.242 155.885 138.408C155.954 138.574 156.07 138.715 156.219 138.815C156.367 138.915 156.543 138.968 156.722 138.968C156.961 138.968 157.19 138.873 157.36 138.705C157.529 138.536 157.625 138.308 157.627 138.069Z" fill="white" stroke="#263238" stroke-linecap="round" stroke-linejoin="round"/>
<path d="M175.363 130.251C175.364 129.635 175.183 129.033 174.841 128.521C174.5 128.009 174.015 127.61 173.447 127.374C172.878 127.138 172.253 127.076 171.649 127.195C171.046 127.315 170.491 127.611 170.056 128.047C169.621 128.482 169.325 129.036 169.205 129.64C169.085 130.243 169.147 130.869 169.383 131.437C169.619 132.005 170.019 132.491 170.531 132.832C171.043 133.173 171.645 133.355 172.26 133.354C173.082 133.352 173.871 133.025 174.452 132.443C175.034 131.861 175.361 131.073 175.363 130.251Z" fill="white" stroke="#263238" stroke-linecap="round" stroke-linejoin="round"/>
<path d="M173.959 130.251C173.959 129.913 173.859 129.583 173.672 129.303C173.484 129.022 173.217 128.804 172.905 128.675C172.593 128.546 172.25 128.512 171.919 128.579C171.588 128.645 171.285 128.808 171.046 129.047C170.808 129.286 170.646 129.59 170.581 129.922C170.516 130.253 170.551 130.596 170.68 130.907C170.81 131.219 171.03 131.485 171.311 131.671C171.592 131.858 171.923 131.957 172.26 131.956C172.711 131.954 173.143 131.774 173.462 131.454C173.781 131.135 173.959 130.702 173.959 130.251Z" fill="white" stroke="#263238" stroke-linecap="round" stroke-linejoin="round"/>
<path d="M173.959 87.6553C173.959 87.6553 165.242 91.0599 164.14 91.6399C163.666 91.9265 163.162 92.1618 162.638 92.3417C162.638 92.3417 163.137 99.9571 163.34 101.964C163.543 103.971 166.744 105.873 169.551 105.774C172.359 105.676 174.661 104.168 175.166 103.269C175.67 102.37 177.068 99.6613 177.068 99.6613C177.068 99.6613 180.374 99.0813 180.548 96.1523C180.722 93.2233 179.748 93.8323 178.646 94.4471C177.544 95.0619 176.941 95.4505 176.941 95.4505C177.155 94.3873 176.976 93.2825 176.436 92.3417C175.566 90.8627 174.162 89.0589 173.959 87.6553Z" fill="white" stroke="#263238" stroke-linecap="round" stroke-linejoin="round"/>
<path d="M166.849 96.9758C166.849 96.9758 167.649 98.1764 168.351 98.0778" stroke="#263238" stroke-linecap="round" stroke-linejoin="round"/>
<path d="M166.547 98.7798C166.547 98.7798 168.246 100.386 171.187 99.0814" stroke="#263238" stroke-linecap="round" stroke-linejoin="round"/>
<path d="M170.856 94.569C170.856 94.569 172.91 93.67 174.064 95.2708" stroke="#263238" stroke-width="1.5" stroke-linecap="round" stroke-linejoin="round"/>
<path d="M166.849 94.3717C166.849 94.3717 165.242 93.3683 164.041 94.1687" stroke="#263238" stroke-width="1.5" stroke-linecap="round" stroke-linejoin="round"/>
<path d="M168.026 93.9948C168.027 94.5551 167.862 95.1031 167.551 95.5694C167.241 96.0358 166.799 96.3995 166.281 96.6144C165.764 96.8294 165.194 96.8859 164.645 96.7769C164.095 96.6678 163.59 96.3981 163.194 96.002C162.798 95.6058 162.528 95.1009 162.419 94.5513C162.31 94.0017 162.367 93.4322 162.582 92.9147C162.797 92.3973 163.16 91.9553 163.627 91.6448C164.093 91.3342 164.641 91.169 165.201 91.1702C165.95 91.1717 166.668 91.4698 167.197 91.9992C167.726 92.5286 168.024 93.2461 168.026 93.9948Z" stroke="#263238" stroke-linecap="round" stroke-linejoin="round"/>
<path d="M175.073 94.7892C175.074 95.3492 174.909 95.897 174.599 96.3633C174.288 96.8295 173.847 97.1932 173.33 97.4083C172.813 97.6234 172.243 97.6803 171.694 97.5717C171.145 97.4632 170.64 97.1941 170.243 96.7984C169.847 96.4028 169.577 95.8985 169.467 95.3493C169.357 94.8001 169.413 94.2307 169.627 93.7132C169.841 93.1957 170.204 92.7533 170.669 92.442C171.135 92.1308 171.683 91.9646 172.243 91.9646C172.992 91.9661 173.71 92.264 174.24 92.7932C174.771 93.3225 175.07 94.04 175.073 94.7892Z" stroke="#263238" stroke-linecap="round" stroke-linejoin="round"/>
<path d="M168.026 93.9948C168.228 93.9262 168.445 93.9132 168.655 93.9571C168.864 94.001 169.057 94.1001 169.215 94.2442" stroke="#263238" stroke-linecap="round" stroke-linejoin="round"/>
<path d="M175.172 95.2359L177.95 94.8416" stroke="#263238" stroke-linecap="round" stroke-linejoin="round"/>
<path d="M57.3388 229.901C56.5706 231.532 55.6253 233.075 54.52 234.5C52.8438 236.559 52.4204 238.026 54.2416 239.302C56.0628 240.578 59.3804 240.381 61.0508 238.322C62.7212 236.263 65.4124 230.585 65.4124 230.585C65.4124 230.585 59.5428 228.822 57.3388 229.901Z" fill="white" stroke="#263238" stroke-linecap="round" stroke-linejoin="round"/>
<path d="M77.7664 231.171C77.7664 231.171 80.6664 234.993 82.4064 236.971C84.1464 238.948 87.435 239.905 89.1924 239.807C90.9498 239.708 93.4728 239.122 91.7676 235.99C90.0624 232.858 86.5012 229.819 86.5012 229.819C86.5012 229.819 82.7776 229.819 80.2198 229.523C77.662 229.228 77.6388 230.585 77.7664 231.171Z" fill="white" stroke="#263238" stroke-linecap="round" stroke-linejoin="round"/>
<path d="M58.9396 159.181C58.9396 159.181 57.7796 172.521 58.174 181.905C58.5684 191.29 56.84 210.018 56.26 214.6C55.68 219.182 56.7878 226.745 56.84 228.41C56.8922 230.074 56.9502 230.962 56.9502 230.962C56.9502 230.962 57.8086 230.382 60.9696 230.962C62.3967 231.267 63.8452 231.461 65.3022 231.542C66.6063 229.336 67.6848 227.004 68.5212 224.582C69.4666 221.45 68.933 218.202 68.8576 216.549C68.7822 214.896 68.5096 213.121 68.6952 212.825C68.8808 212.529 72.7552 184.521 72.964 178.35C73.2013 174.167 73.8226 170.014 74.82 165.944C74.82 165.944 76.6702 174.563 76.8152 177.892C76.9602 181.221 76.4846 208.353 76.7224 213.852C76.9602 219.35 76.5368 220.812 75.9104 222.181C75.284 223.549 75.5102 224.234 75.951 225.313C76.3918 226.391 77.778 231.188 77.778 231.188C77.778 231.188 84.8482 231.582 85.8052 231.089C86.7622 230.596 87.1334 230.115 87.116 229.819C87.0986 229.523 90.5206 222.471 90.1958 219.536C89.871 216.601 89.4998 217.088 89.1692 211.799C88.8386 206.509 91.002 161.919 90.9962 159.599C90.9904 157.279 90.6018 161.75 76.183 159.019C61.7642 156.287 59.3514 157.319 58.9396 159.181Z" fill="#0F6634" stroke="#263238" stroke-linecap="round" stroke-linejoin="round"/>
<path d="M78.184 227.36C78.184 227.36 82.7138 223.439 86.4896 222.459L78.184 227.36Z" fill="white"/>
<path d="M78.184 227.36C78.184 227.36 82.7138 223.439 86.4896 222.459" stroke="#263238" stroke-linecap="round" stroke-linejoin="round"/>
<path d="M59.6878 225.492C59.6878 225.492 65.3486 222.749 66.9842 222.065L59.6878 225.492Z" fill="white"/>
<path d="M59.6878 225.492C59.6878 225.492 65.3486 222.749 66.9842 222.065" stroke="#263238" stroke-linecap="round" stroke-linejoin="round"/>
<path d="M69.1882 86.7044C69.1882 86.7044 67.6686 83.2766 66.5434 84.454C65.4182 85.6314 66.2708 87.1916 67.8194 89.0534C69.368 90.9152 70.5918 89.7378 70.267 88.9548C69.9422 88.1718 69.1882 86.7044 69.1882 86.7044Z" fill="white" stroke="#263238" stroke-linecap="round" stroke-linejoin="round"/>
<path d="M83.897 84.8424C83.897 84.8424 85.4166 81.5132 86.6578 83.1024C87.899 84.6916 85.231 88.5892 84.5756 89.2736C83.9202 89.958 83.4968 84.767 83.4968 84.767L83.897 84.8424Z" fill="white" stroke="#263238" stroke-linecap="round" stroke-linejoin="round"/>
<path d="M50.9066 127.745C50.9066 127.745 50.4832 133.818 49.967 135.384C48.9132 139.074 48.4205 142.903 48.5054 146.74C48.7084 151.34 50.5122 161.333 50.547 164.366C50.5818 167.4 49.6364 168.09 50.6514 168.873C51.6664 169.656 53.824 172.011 54.607 172.011C55.39 172.011 56.5848 172.399 56.5558 171.814C56.5268 171.228 56.144 171.321 55.8134 170.538C55.3913 169.396 55.0464 168.228 54.781 167.04C55.0192 166.175 55.3078 165.325 55.6452 164.494C55.6452 164.494 56.3412 166.942 56.4746 167.73C56.608 168.519 57.6984 168.803 57.6346 167.336C57.5708 165.869 57.5418 165.277 57.4722 163.711C57.4026 162.145 56.1672 160.776 55.6452 159.987C55.1232 159.199 54.7114 158.717 54.694 158.421C54.6766 158.126 56.3818 147.749 56.434 144.124C56.4862 140.499 56.5384 137.559 56.7994 136.874C57.0604 136.19 58.3596 130.019 58.3596 130.019L50.9066 127.745Z" fill="white" stroke="#263238" stroke-linecap="round" stroke-linejoin="round"/>
<path d="M99.3482 128.035C99.3482 128.035 99.7658 134.143 100.288 135.755C101.329 139.494 101.819 143.364 101.744 147.245C101.541 151.833 99.7252 161.664 99.6904 164.697C99.6556 167.73 100.607 168.496 99.5918 169.192C98.5768 169.888 96.4134 172.046 95.6304 171.982C94.8474 171.918 93.6584 172.196 93.6816 171.611C93.7048 171.025 94.0934 171.158 94.424 170.404C94.8525 169.286 95.1995 168.139 95.4622 166.971C95.2221 166.079 94.9316 165.202 94.5922 164.343C94.5922 164.343 93.8962 166.733 93.7628 167.504C93.6294 168.276 92.5448 168.473 92.6028 167.011C92.6608 165.55 92.6898 164.964 92.7594 163.404C92.829 161.843 94.0644 160.579 94.5922 159.842C95.12 159.106 95.526 158.648 95.5434 158.358C95.5608 158.068 93.8556 147.535 93.8034 143.904C93.7512 140.273 93.7048 137.333 93.438 136.625C93.1712 135.917 91.8778 129.63 91.8778 129.63L99.3482 128.035Z" fill="white" stroke="#263238" stroke-linecap="round" stroke-linejoin="round"/>
<path d="M72.326 97.9678C72.326 97.9678 66.758 100.613 63.394 102.08C60.03 103.547 55.8018 105.311 55.854 106.001C55.9062 106.691 52.2696 120.396 51.1212 123.238C49.9728 126.08 48.8998 128.331 48.8998 128.331C48.8998 128.331 53.012 131.08 55.68 131.66C57.3994 132.024 59.1448 132.253 60.9 132.344L57.7274 160.556C57.7274 160.556 64.1074 163.102 74.1008 163.2C80.3015 163.246 86.4994 162.919 92.6608 162.22C92.6608 162.22 93.6004 139.02 93.5018 136.752C93.4337 135.51 93.4784 134.263 93.6352 133.029C95.1574 133.361 96.7395 133.295 98.2288 132.837C99.5387 132.35 100.822 131.794 102.074 131.173C102.074 131.173 97.208 111.778 96.4076 109.133C95.6072 106.488 95.9784 106.099 95.2824 105.804C94.5864 105.508 86.8956 102.179 84.3842 100.711C81.8728 99.2438 80.9042 99.238 78.706 98.5536C76.5078 97.8692 73.457 96.9876 72.326 97.9678Z" fill="#0F6634" stroke="#263238" stroke-linecap="round" stroke-linejoin="round"/>
<path d="M93.6468 133.029L92.4056 115.635" stroke="#263238" stroke-linecap="round" stroke-linejoin="round"/>
<path d="M61.132 142.141L71.9954 141.845C71.9954 141.845 71.514 155.463 71.1834 156.925C70.8528 158.387 68.6488 159.373 65.801 159.274C62.9532 159.175 61.2306 157.807 60.9058 157.122" stroke="#263238" stroke-linecap="round" stroke-linejoin="round"/>
<path d="M60.523 143.904L71.978 143.805" stroke="#263238" stroke-linecap="round" stroke-linejoin="round"/>
<path d="M90.683 159.28C89.6158 159.576 87.0696 159.576 86.5128 158.01C85.956 156.444 86.3214 142.437 86.3214 142.437L91.9126 142.628" stroke="#263238" stroke-linecap="round" stroke-linejoin="round"/>
<path d="M86.275 143.608L91.5936 144.391" stroke="#263238" stroke-linecap="round" stroke-linejoin="round"/>
<path d="M60.9 132.344C60.9 132.344 61.2944 118.929 61.1378 115.403" stroke="#263238" stroke-linecap="round" stroke-linejoin="round"/>
<path d="M70.6672 91.4023C70.6672 91.4023 71.514 99.5223 71.5488 100.416C71.5836 101.309 72.5754 103.745 73.515 105.021C74.4546 106.297 77.082 110.409 78.126 109.62C79.17 108.831 82.1106 104.429 82.3948 101.982C82.679 99.5339 82.8182 93.7571 82.8182 93.7571C82.8182 93.7571 79.0076 93.9543 76.1192 92.9741C73.2308 91.9939 70.6672 91.4023 70.6672 91.4023Z" fill="white" stroke="#263238" stroke-linecap="round" stroke-linejoin="round"/>
<path d="M66.6072 79.2571L68.7706 86.1185C68.7706 86.1185 69.5826 91.2109 71.0442 93.2641C72.5058 95.3173 77.6272 98.2637 79.953 97.6721C82.2788 97.0805 85.0222 94.9287 84.9178 92.5797C84.8134 90.2307 84.3378 83.3751 84.4016 80.7303C84.4654 78.0855 83.8216 72.6973 82.2208 71.2299C80.62 69.7625 75.2608 68.8751 71.4154 70.4469C67.57 72.0187 64.96 74.9477 66.6072 79.2571Z" fill="#263238" stroke="#263238" stroke-linecap="round" stroke-linejoin="round"/>
<path d="M68.8924 86.7043C68.8924 86.7043 68.701 86.8029 69.2056 84.8425C69.7102 82.8821 71.2298 81.9019 71.3806 80.9275C71.5314 79.9531 69.4666 79.6515 69.6928 78.1841C69.919 76.7167 71.9374 75.6379 76.2236 75.1449C80.5098 74.6519 83.3634 77.2039 83.2242 78.4741C83.085 79.7443 82.7022 79.9473 83.3286 80.8289C83.955 81.7105 84.2218 83.3751 84.2682 84.3553C84.3146 85.3355 84.8482 88.8561 83.9202 89.9349C82.9922 91.0137 82.2962 90.8165 81.374 89.9349C80.4518 89.0533 80.1096 87.8817 78.0564 87.8817C76.0032 87.8817 75.3478 88.6647 74.9882 89.4477C74.6286 90.2307 74.2806 91.1877 73.109 91.1877C71.9374 91.1877 71.1022 90.1089 70.267 88.9315C69.7581 88.2217 69.2988 87.4775 68.8924 86.7043Z" fill="white" stroke="#263238" stroke-linecap="round" stroke-linejoin="round"/>
<path d="M77.72 81.9019C77.72 81.9019 79.6166 87.1914 79.5354 87.5858C79.4542 87.9802 78.5262 89.1518 77.4416 89.0532C76.357 88.9546 75.8176 87.6844 75.8176 87.6844" stroke="#263238" stroke-linecap="round" stroke-linejoin="round"/>
<path d="M78.2536 81.2C78.2017 81.0229 78.1906 80.8365 78.2209 80.6545C78.2513 80.4725 78.3224 80.2998 78.4289 80.1492C78.5355 79.9986 78.6747 79.874 78.8362 79.7848C78.9976 79.6956 79.1772 79.644 79.3614 79.634C79.9674 79.6046 80.5729 79.703 81.1385 79.9228C81.704 80.1427 82.217 80.479 82.6442 80.91" stroke="#263238" stroke-width="2" stroke-linecap="round" stroke-linejoin="round"/>
<path d="M75.4 80.6201C75.1201 80.412 74.7975 80.2687 74.4555 80.2005C74.1134 80.1323 73.7605 80.1409 73.4222 80.2257C72.2622 80.5215 70.8644 82.2847 70.8818 82.5805" stroke="#263238" stroke-width="2" stroke-linecap="round" stroke-linejoin="round"/>
<path d="M75.023 83.4736C75.023 83.9608 74.82 84.3552 74.5184 84.3552C74.2168 84.3552 73.9384 83.9608 73.9384 83.4736C73.9384 82.9864 74.1414 82.592 74.4372 82.592C74.733 82.592 74.9998 82.9864 75.023 83.4736Z" fill="#263238"/>
<path d="M80.6896 83.178C80.6896 83.6652 80.4866 84.0596 80.1908 84.0596C79.895 84.0596 79.6108 83.6652 79.6108 83.178C79.6108 82.6908 79.8138 82.2964 80.1096 82.2964C80.4054 82.2964 80.6664 82.6908 80.6896 83.178Z" fill="#263238"/>
<path d="M75.6552 91.2108C75.6552 91.2108 77.5518 92.0924 80.4344 90.8164" stroke="white" stroke-width="2" stroke-linecap="round" stroke-linejoin="round"/>
<path d="M68.6778 99.76C68.6778 99.76 71.5778 109.748 74.6924 116.313C77.807 122.879 80.2778 127.478 80.2778 127.478C80.2778 127.478 84.97 111.708 84.9468 106.598C84.9236 101.488 84.8946 100.92 84.8946 100.92" stroke="#263238" stroke-linecap="round" stroke-linejoin="round"/>
<path d="M83.752 137.437H77.7722L77.3372 127.449H83.3112L83.752 137.437Z" fill="white" stroke="#263238" stroke-linecap="round" stroke-linejoin="round"/>
<path d="M127.681 234.21C127.681 234.21 130.813 236.756 133.064 237.44C135.314 238.125 136.491 238.519 136.004 239.598C135.517 240.677 133.945 241.065 129.346 241.164C124.746 241.263 123.859 240.282 122.096 239.789C120.333 239.296 117.885 239.789 117.102 238.815C116.319 237.841 116.609 236.362 116.609 234.796C116.609 233.23 123.372 232.545 125.135 233.131C126.02 233.398 126.874 233.76 127.681 234.21Z" fill="white" stroke="#263238" stroke-linecap="round" stroke-linejoin="round"/>
<path d="M118.767 236.17C118.767 236.17 121.707 239.302 124.155 240.671C126.602 242.04 127.971 243.026 127.385 243.71C126.8 244.395 124.938 245.276 120.037 244.789C115.136 244.302 114.161 243.217 111.812 241.553C109.463 239.888 108.385 240.085 107.602 239.204C106.819 238.322 106.819 236.362 106.819 236.362L118.767 236.17Z" fill="white" stroke="#263238" stroke-linecap="round" stroke-linejoin="round"/>
<path d="M133.458 163.688C133.458 163.688 131.718 186.998 131.01 191.209C130.303 195.419 129.636 197.774 129.734 200.709C129.833 203.644 130.715 212.071 128.951 217.071C127.188 222.07 127.211 228.137 127.385 229.9C127.559 231.664 128.168 234.013 128.07 234.407C127.971 234.801 125.135 236.362 123.076 236.756C121.782 236.994 120.471 237.124 119.155 237.145C117.163 237.848 115.093 238.31 112.99 238.519C110.049 238.716 106.03 237.835 106.03 237.835C106.03 237.835 106.03 230.585 105.635 225.881C105.241 221.177 103.895 213.643 105.537 207.959C107.178 202.275 106.813 199.259 106.697 197.38C106.581 195.501 106.697 187.096 106.598 186.801C106.5 186.505 105.914 162.023 105.914 162.023C105.914 162.023 116.586 163.589 123.737 162.905C130.889 162.22 132.75 162.22 132.75 162.22C132.75 162.22 134.34 160.457 133.458 163.688Z" fill="#263238" stroke="#263238" stroke-linecap="round" stroke-linejoin="round"/>
<path d="M119.648 235.776C119.643 234.19 119.448 232.611 119.068 231.072C118.488 229.117 118.378 222.163 118.674 219.321C118.97 216.479 120.414 209.334 120.414 205.314C120.414 201.295 120.808 195.129 120.808 195.129" stroke="white" stroke-linecap="round" stroke-linejoin="round"/>
<path d="M139.919 192.972L128.76 192.873C128.273 192.873 128.273 185.432 128.273 185.432L139.919 192.972Z" fill="white" stroke="#263238" stroke-linecap="round" stroke-linejoin="round"/>
<path d="M116.319 165.062C116.319 165.062 127.484 165.747 133.754 164.668L131.596 111.975C131.596 111.975 130.129 109.527 126.208 108.153C122.287 106.778 117.589 108.733 115.925 110.6C114.26 112.468 115.437 164.865 115.437 164.865L116.319 165.062Z" fill="#08A64B" stroke="#263238" stroke-linecap="round" stroke-linejoin="round"/>
<path d="M116.806 108.153C116.806 108.153 105.74 113.738 104.075 114.718C102.411 115.698 102.335 119.219 102.335 120.889C102.335 122.56 102.822 196.695 102.822 196.695C107.011 196.969 111.216 196.54 115.263 195.425C119.255 194.381 123.01 192.586 126.33 190.136L124.468 150.272L122.38 115.304C122.38 115.304 121.116 105.606 116.806 108.153Z" fill="white" stroke="#263238" stroke-linecap="round" stroke-linejoin="round"/>
<path d="M120.135 104.528C120.135 104.528 117.589 104.823 116.51 106.268C115.878 107.12 115.414 108.084 115.142 109.11L114.161 117.926L117.491 117.143L115.826 121.058C115.826 121.058 117.491 125.959 119.352 130.071C121.214 134.183 123.958 142.605 123.958 142.605L122.682 116.261C122.682 116.261 122.682 108.622 122.102 106.981C121.522 105.34 120.918 104.528 120.135 104.528Z" fill="white" stroke="#263238" stroke-linecap="round" stroke-linejoin="round"/>
<path d="M126.504 109.916L128.464 189.741L139.919 192.972L138.255 132.153C138.255 132.153 138.55 116.493 137.57 114.324C136.59 112.155 127.78 107.764 126.898 107.88C126.017 107.996 126.504 109.916 126.504 109.916Z" fill="white" stroke="#263238" stroke-linecap="round" stroke-linejoin="round"/>
<path d="M126.504 105.902C127.217 106.076 127.884 106.402 128.459 106.859C129.033 107.316 129.502 107.892 129.833 108.547C130.813 110.699 133.359 117.363 133.359 117.363L130.129 117.752L133.557 120.199L127.484 143.022L126.8 118.32L126.22 108.135C126.22 108.135 125.524 106.488 126.504 105.902Z" fill="white" stroke="#263238" stroke-linecap="round" stroke-linejoin="round"/>
<path d="M119.352 101.198C119.352 101.198 119.747 104.04 119.155 105.606C118.564 107.172 121.017 112.073 121.997 115.107C122.977 118.14 123.958 120.593 124.543 120.298C125.129 120.002 127.188 108.547 127.09 107.074C126.991 105.6 127.971 101.198 127.971 101.198C127.971 101.198 122.583 102.764 119.352 101.198Z" fill="white" stroke="#263238" stroke-linecap="round" stroke-linejoin="round"/>
<path d="M112.474 98.2113C115.558 98.2113 118.059 95.599 118.059 92.3765C118.059 89.1541 115.558 86.5417 112.474 86.5417C109.389 86.5417 106.888 89.1541 106.888 92.3765C106.888 95.599 109.389 98.2113 112.474 98.2113Z" fill="#263238" stroke="#263238" stroke-linecap="round" stroke-linejoin="round"/>
<path d="M115.339 95.1199C115.339 95.1199 114.359 92.5737 113.181 93.5539C112.004 94.5341 113.181 96.6859 114.063 97.9619C114.944 99.2379 116.609 98.6463 116.418 97.3819C116.259 96.5474 115.888 95.7681 115.339 95.1199Z" fill="white" stroke="#263238" stroke-linecap="round" stroke-linejoin="round"/>
<path d="M130.5 93.5366C130.5 93.5366 130.993 91.089 131.66 92.7536C131.955 93.4057 132.091 94.1185 132.057 94.8335C132.023 95.5484 131.819 96.245 131.463 96.8658C130.883 97.846 130.976 97.7474 130.778 96.8658C130.624 95.762 130.531 94.6506 130.5 93.5366Z" fill="white" stroke="#263238" stroke-linecap="round" stroke-linejoin="round"/>
<path d="M113.964 90.4045C113.964 90.4045 115.826 99.4119 117.003 101.569C118.181 103.727 122.096 107.369 125.622 105.879C129.149 104.388 131.109 101.668 131.109 98.3389C131.109 95.0097 131.596 90.7989 131.01 87.1681C130.715 85.5148 129.864 84.0119 128.598 82.9078C127.333 81.8036 125.728 81.1643 124.05 81.0955C120.913 80.9969 116.017 82.7601 115.037 85.8979C114.529 87.3602 114.17 88.87 113.964 90.4045Z" fill="white" stroke="#263238" stroke-linecap="round" stroke-linejoin="round"/>
<path d="M114.063 93.7338C114.063 93.7338 119.55 91.5762 123.076 88.9314C126.602 86.2866 127.681 84.332 127.681 84.332C127.681 84.332 129.346 88.8328 130.03 90.306C130.715 91.7792 131.3 93.438 131.3 93.438C131.3 93.438 132.379 91.5762 132.379 87.638C132.379 83.6998 131.3 80.5852 127.159 78.5262C123.018 76.4672 116.29 77.7432 113.239 80.6838C110.188 83.6244 110.792 88.421 111.575 90.2828C112.187 91.5747 113.031 92.7442 114.063 93.7338Z" fill="#263238" stroke="#263238" stroke-linecap="round" stroke-linejoin="round"/>
<path d="M126.208 90.1086C126.208 90.1086 125.628 90.2072 125.628 91.9704C125.628 93.7336 126.208 96.6684 126.115 97.0628C126.022 97.4572 124.955 98.6288 124.259 97.9444" stroke="#263238" stroke-linecap="round" stroke-linejoin="round"/>
<path d="M121.8 99.7078C121.8 99.7078 124.346 100.787 127.6 98.8262" stroke="#263238" stroke-linecap="round" stroke-linejoin="round"/>
<path d="M126.602 89.8999C126.602 89.8999 128.667 89.1111 130.03 90.2943" stroke="#263238" stroke-linecap="round" stroke-linejoin="round"/>
<path d="M123.175 90.306C122.278 90.0397 121.331 89.9897 120.412 90.1601C119.492 90.3305 118.626 90.7164 117.885 91.2862" stroke="#263238" stroke-linecap="round" stroke-linejoin="round"/>
<path d="M121.8 93.1421C121.8 93.7221 121.562 94.2209 121.266 94.2209C120.971 94.2209 120.727 93.7395 120.727 93.1421C120.727 92.5447 120.965 92.0691 121.266 92.0691C121.568 92.0691 121.8 92.5505 121.8 93.1421Z" fill="#263238"/>
<path d="M128.18 92.7536C128.18 93.3336 127.936 93.8324 127.641 93.8324C127.345 93.8324 127.101 93.351 127.101 92.7536C127.101 92.1562 127.345 91.6748 127.641 91.6748C127.936 91.6748 128.18 92.1562 128.18 92.7536Z" fill="#263238"/>
<path d="M134.438 132.443L132.698 129.601C132.205 128.818 129.955 129.114 128.876 129.114C128.315 129.172 127.776 129.36 127.3 129.662C126.824 129.964 126.424 130.372 126.133 130.854C125.744 131.637 123.981 132.913 124.665 133.696C125.35 134.479 127.211 133.986 127.507 134.183C127.803 134.38 130.251 136.045 131.132 136.341C131.601 136.513 132.102 136.578 132.6 136.532L134.438 132.443Z" stroke="#263238" stroke-linecap="round" stroke-linejoin="round"/>
<path d="M137.083 113.738C138.068 114.193 138.95 114.844 139.674 115.652C140.398 116.46 140.949 117.407 141.294 118.436C142.373 121.864 145.992 144.687 145.209 146.856C144.426 149.025 142.471 150.672 139.043 149.501C135.616 148.329 130.343 142.738 130.343 142.738L134.456 132.455L137.686 134.119L137.002 124.915" fill="white"/>
<path d="M137.083 113.738C138.068 114.193 138.95 114.844 139.674 115.652C140.398 116.46 140.949 117.407 141.294 118.436C142.373 121.864 145.992 144.687 145.209 146.856C144.426 149.025 142.471 150.672 139.043 149.501C135.616 148.329 130.343 142.738 130.343 142.738L134.456 132.455L137.686 134.119L137.002 124.915" stroke="#263238" stroke-linecap="round" stroke-linejoin="round"/>
<path d="M137.669 134.108C137.669 134.108 142.86 137.147 143.353 138.226" stroke="#263238" stroke-linecap="round" stroke-linejoin="round"/>
<path d="M131.103 120.396H112.201V146.844H131.103V120.396Z" fill="#263238" stroke="#263238" stroke-linecap="round" stroke-linejoin="round"/>
<path d="M120.727 138.811C120.727 138.811 124.346 136.851 125.425 135.772C126.504 134.693 126.701 134.612 127.287 134.612C128.728 134.612 130.168 134.513 131.596 134.316C132.176 134.119 131.892 135.476 131.596 135.784C131.3 136.091 129.444 136.474 129.444 136.474C129.444 136.474 132.576 136.178 132.675 137.158C132.745 137.439 132.736 137.734 132.649 138.011C132.562 138.287 132.4 138.534 132.182 138.724L131.892 139.02C131.892 139.02 132.182 141.073 131.892 142.054C131.602 143.034 131.01 143.33 129.734 143.521C128.031 143.63 126.322 143.532 124.642 143.231C123.662 143.034 120.333 143.718 120.333 143.718L120.727 138.811Z" fill="white" stroke="#263238" stroke-linecap="round" stroke-linejoin="round"/>
<path d="M107.7 112.955C107.7 112.955 101.9 114.225 100.937 114.811C99.9746 115.397 96.7266 138.713 96.0422 142.651C95.3578 146.589 102.115 147.355 104.162 148.138C106.21 148.921 121.22 150.075 121.22 150.075L121.417 137.93L111.035 135.285L110.937 118.535" fill="white"/>
<path d="M107.7 112.955C107.7 112.955 101.9 114.225 100.937 114.811C99.9746 115.397 96.7266 138.713 96.0422 142.651C95.3578 146.589 102.115 147.355 104.162 148.138C106.21 148.921 121.22 150.075 121.22 150.075L121.417 137.93L111.035 135.285L110.937 118.535" stroke="#263238" stroke-linecap="round" stroke-linejoin="round"/>
<path d="M111.029 135.285C111.029 135.285 107.404 133.62 105.055 134.502C102.706 135.384 100.746 139.89 100.746 139.89" stroke="#263238" stroke-linecap="round" stroke-linejoin="round"/>
<path d="M107.01 134.108C107.01 134.108 103.582 133.91 101.918 134.601C100.894 135.034 99.9873 135.704 99.2728 136.555" stroke="#263238" stroke-linecap="round" stroke-linejoin="round"/>
<path d="M125.622 119.515H118.964V121.672H125.622V119.515Z" fill="white" stroke="#263238" stroke-linecap="round" stroke-linejoin="round"/>
</svg>
